<?xml version="1.0" standalone="no"?>
<!DOCTYPE svg PUBLIC "-//W3C//DTD SVG 20010904//EN"
 "http://www.w3.org/TR/2001/REC-SVG-20010904/DTD/svg10.dtd">
<svg version="1.0" xmlns="http://www.w3.org/2000/svg"
 width="1024.000000pt" height="1024.000000pt" viewBox="0 0 1024.000000 1024.000000"
 preserveAspectRatio="xMidYMid meet">
<metadata>
Created by potrace 1.11, written by Peter Selinger 2001-2013
</metadata>
<g transform="translate(0.000000,1024.000000) scale(0.100000,-0.100000)"
fill="#000000" stroke="none">
<path d="M2077 10224 c-251 -45 -469 -183 -620 -391 -52 -72 -122 -223 -149
-323 l-23 -85 -2 -4712 -3 -4711 1920 1120 1920 1120 1920 -1120 1920 -1120
-3 4711 -2 4712 -23 84 c-94 349 -354 610 -702 703 l-85 23 -2995 2 c-2538 1
-3007 -1 -3073 -13z m2236 -2029 c20 -8 347 -198 725 -422 378 -223 941 -556
1252 -740 311 -184 582 -351 603 -371 21 -20 50 -62 65 -92 23 -47 27 -67 27
-145 0 -79 -4 -97 -28 -148 -17 -34 -47 -73 -75 -97 -26 -22 -611 -373 -1301
-781 -983 -580 -1267 -744 -1314 -756 -76 -19 -145 -11 -223 26 -73 36 -125
88 -161 166 l-28 60 0 1535 0 1535 26 55 c47 99 115 158 218 187 56 16 162 10
214 -12z"/>
</g>
</svg>
